<svg width="22" height="24" viewBox="0 0 22 24" fill="none" xmlns="http://www.w3.org/2000/svg">
<g filter="url(#filter0_d)">
<path d="M15.996 11.6226L14.1579 11.4127C13.7164 11.362 13.2822 11.514 12.971 11.8252L11.6395 13.1568C9.59144 12.1147 7.91251 10.443 6.87041 8.3877L8.20922 7.04888C8.5204 6.7377 8.67237 6.30349 8.62171 5.86205L8.41185 4.03836C8.325 3.30745 7.70988 2.75745 6.97173 2.75745H5.71976C4.902 2.75745 4.22175 3.43771 4.2724 4.25547C4.65595 10.4357 9.59868 15.3712 15.7717 15.7548C16.5894 15.8054 17.2697 15.1252 17.2697 14.3074V13.0555C17.2769 12.3245 16.7269 11.7094 15.996 11.6226Z" fill="#212121"/>
</g>
<defs>
<filter id="filter0_d" x="-2" y="0.5" width="26" height="26" filterUnits="userSpaceOnUse" color-interpolation-filters="sRGB">
<feFlood flood-opacity="0" result="BackgroundImageFix"/>
<feColorMatrix in="SourceAlpha" type="matrix" values="0 0 0 0 0 0 0 0 0 0 0 0 0 0 0 0 0 0 127 0"/>
<feOffset dy="4"/>
<feGaussianBlur stdDeviation="2"/>
<feColorMatrix type="matrix" values="0 0 0 0 0 0 0 0 0 0 0 0 0 0 0 0 0 0 0.25 0"/>
<feBlend mode="normal" in2="BackgroundImageFix" result="effect1_dropShadow"/>
<feBlend mode="normal" in="SourceGraphic" in2="effect1_dropShadow" result="shape"/>
</filter>
</defs>
</svg>
