<!-- Generated by IcoMoon.io -->
<svg version="1.1" xmlns="http://www.w3.org/2000/svg" width="39" height="32" viewBox="0 0 39 32">
<title>email-black</title>
<path d="M34.462 1.231h-29.538c-2.031 0-3.675 1.662-3.675 3.692l-0.017 22.154c0 2.031 1.662 3.692 3.692 3.692h29.538c2.031 0 3.692-1.662 3.692-3.692v-22.154c0-2.031-1.662-3.692-3.692-3.692zM33.723 9.078l-13.051 8.158c-0.278 0.174-0.616 0.277-0.978 0.277s-0.7-0.103-0.986-0.281l0.008 0.005-13.054-8.16c-0.465-0.278-0.771-0.778-0.771-1.35 0-0.866 0.702-1.568 1.568-1.568 0.322 0 0.621 0.097 0.87 0.263l-0.006-0.004 12.369 7.737 12.369-7.737c0.243-0.163 0.543-0.26 0.865-0.26 0.866 0 1.568 0.702 1.568 1.568 0 0.572-0.306 1.073-0.764 1.346l-0.007 0.004z"></path>
</svg>
